<svg xmlns="http://www.w3.org/2000/svg" xmlns:xlink="http://www.w3.org/1999/xlink" width="51" zoomAndPan="magnify" viewBox="0 0 38.25 39.749999" height="53" preserveAspectRatio="xMidYMid meet" version="1.0"><defs><clipPath id="ae5ea89cce"><path d="M 21 34 L 23 34 L 23 36.972656 L 21 36.972656 Z M 21 34 " clip-rule="nonzero"/></clipPath><clipPath id="5083b0e5ce"><path d="M 9 8 L 37.515625 8 L 37.515625 32 L 9 32 Z M 9 8 " clip-rule="nonzero"/></clipPath><clipPath id="d4e63317e7"><path d="M 13 34 L 16 34 L 16 36.972656 L 13 36.972656 Z M 13 34 " clip-rule="nonzero"/></clipPath><clipPath id="c800ee4f08"><path d="M 16 2.402344 L 18 2.402344 L 18 5 L 16 5 Z M 16 2.402344 " clip-rule="nonzero"/></clipPath><clipPath id="6d28f04779"><path d="M 23 2.402344 L 25 2.402344 L 25 6 L 23 6 Z M 23 2.402344 " clip-rule="nonzero"/></clipPath></defs><g clip-path="url(#ae5ea89cce)"><path fill="#5271ff" d="M 22.054688 37.105469 C 21.945312 37.105469 21.84375 37.039062 21.800781 36.933594 L 21.058594 35.042969 C 21.003906 34.902344 21.074219 34.746094 21.214844 34.691406 C 21.355469 34.632812 21.511719 34.703125 21.566406 34.84375 L 22.308594 36.734375 C 22.367188 36.871094 22.296875 37.03125 22.15625 37.085938 C 22.125 37.097656 22.089844 37.105469 22.054688 37.105469 Z M 22.054688 37.105469 " fill-opacity="1" fill-rule="nonzero"/></g><g clip-path="url(#5083b0e5ce)"><path fill="#5271ff" d="M 37.460938 19.914062 L 34.734375 8.527344 C 34.664062 8.238281 34.359375 8.074219 34.078125 8.175781 L 29.933594 9.699219 L 29.769531 9.253906 C 29.714844 9.113281 29.558594 9.039062 29.417969 9.089844 C 29.277344 9.144531 29.203125 9.300781 29.257812 9.441406 L 29.777344 10.863281 L 28.78125 11.207031 C 27.949219 11.496094 27.023438 11.367188 26.300781 10.863281 L 24.175781 9.386719 C 23.882812 9.179688 23.535156 9.054688 23.179688 9.019531 L 18.667969 8.59375 C 18.328125 8.5625 17.988281 8.648438 17.710938 8.84375 L 10.425781 13.957031 C 9.941406 14.296875 9.714844 14.910156 9.863281 15.488281 C 10.019531 16.082031 10.539062 16.507812 11.152344 16.550781 L 13.234375 16.6875 C 13.539062 16.707031 13.832031 16.632812 14.089844 16.46875 L 17.132812 14.550781 C 17.433594 14.363281 17.816406 14.371094 18.105469 14.574219 L 24.714844 19.171875 C 24.75 19.195312 28.320312 21.679688 30.394531 23.074219 C 30.71875 23.292969 30.941406 23.625 31.011719 24.011719 C 31.085938 24.398438 31 24.792969 30.773438 25.121094 L 30.746094 25.15625 C 30.523438 25.476562 30.1875 25.6875 29.804688 25.753906 C 29.421875 25.820312 29.035156 25.730469 28.71875 25.5 L 25.4375 23.121094 C 25.316406 23.03125 25.148438 23.058594 25.058594 23.179688 C 24.96875 23.300781 24.996094 23.472656 25.117188 23.5625 L 27.261719 25.117188 C 27.667969 25.605469 27.695312 26.304688 27.332031 26.824219 C 26.886719 27.464844 26.003906 27.625 25.367188 27.179688 C 25.367188 27.179688 23.84375 26.117188 23.84375 26.117188 C 23.84375 26.117188 22.625 25.269531 22.625 25.269531 C 22.5 25.183594 22.332031 25.214844 22.246094 25.339844 C 22.160156 25.460938 22.191406 25.632812 22.3125 25.71875 L 23.53125 26.566406 C 23.84375 26.78125 24.050781 27.105469 24.117188 27.476562 C 24.183594 27.847656 24.101562 28.226562 23.886719 28.535156 C 23.441406 29.175781 22.558594 29.332031 21.917969 28.886719 L 19.601562 27.277344 C 19.476562 27.191406 19.308594 27.21875 19.222656 27.34375 C 19.136719 27.46875 19.167969 27.636719 19.289062 27.722656 L 20.097656 28.285156 C 20.410156 28.503906 20.617188 28.824219 20.683594 29.199219 C 20.75 29.570312 20.667969 29.945312 20.453125 30.253906 C 20.003906 30.894531 19.117188 31.0625 18.46875 30.621094 L 17.789062 30.160156 C 17.664062 30.078125 17.496094 30.109375 17.410156 30.234375 C 17.328125 30.359375 17.359375 30.527344 17.484375 30.613281 L 18.164062 31.074219 C 18.5 31.304688 18.886719 31.414062 19.269531 31.414062 C 19.898438 31.414062 20.515625 31.117188 20.898438 30.566406 C 21.199219 30.136719 21.3125 29.617188 21.21875 29.101562 C 21.21875 29.085938 21.214844 29.074219 21.210938 29.058594 L 21.605469 29.332031 C 21.945312 29.570312 22.335938 29.683594 22.71875 29.683594 C 23.339844 29.683594 23.949219 29.390625 24.332031 28.84375 C 24.648438 28.386719 24.746094 27.84375 24.640625 27.339844 L 25.054688 27.625 C 25.394531 27.863281 25.785156 27.976562 26.167969 27.976562 C 26.789062 27.976562 27.398438 27.683594 27.78125 27.136719 C 28.074219 26.714844 28.179688 26.214844 28.109375 25.734375 L 28.398438 25.941406 C 28.738281 26.191406 29.144531 26.320312 29.558594 26.320312 C 29.667969 26.320312 29.78125 26.3125 29.894531 26.292969 C 30.425781 26.203125 30.886719 25.910156 31.191406 25.46875 L 31.21875 25.429688 C 31.53125 24.984375 31.648438 24.441406 31.546875 23.910156 C 31.449219 23.378906 31.144531 22.921875 30.699219 22.621094 C 28.625 21.226562 25.0625 18.75 25.027344 18.722656 L 18.417969 14.125 C 17.945312 13.796875 17.328125 13.78125 16.839844 14.089844 L 13.796875 16.007812 C 13.640625 16.109375 13.457031 16.15625 13.269531 16.140625 L 11.1875 16.003906 C 10.808594 15.980469 10.488281 15.714844 10.390625 15.347656 C 10.296875 14.992188 10.4375 14.613281 10.738281 14.402344 L 18.023438 9.292969 C 18.195312 9.171875 18.402344 9.113281 18.613281 9.136719 L 23.125 9.5625 C 23.390625 9.585938 23.644531 9.679688 23.863281 9.832031 L 25.988281 11.3125 C 26.851562 11.914062 27.960938 12.066406 28.957031 11.722656 L 29.964844 11.371094 L 33.226562 20.25 L 32.59375 20.589844 C 32.101562 20.855469 31.679688 21.242188 31.378906 21.714844 C 31.296875 21.839844 31.332031 22.007812 31.460938 22.089844 C 31.503906 22.121094 31.554688 22.132812 31.605469 22.132812 C 31.695312 22.132812 31.785156 22.089844 31.835938 22.007812 C 32.089844 21.617188 32.441406 21.292969 32.851562 21.070312 L 33.417969 20.769531 L 33.933594 22.179688 C 33.976562 22.289062 34.078125 22.355469 34.191406 22.355469 C 34.222656 22.355469 34.253906 22.351562 34.285156 22.339844 C 34.425781 22.289062 34.5 22.128906 34.449219 21.988281 L 34.285156 21.542969 L 37.148438 20.492188 C 37.386719 20.40625 37.519531 20.15625 37.460938 19.914062 Z M 37.460938 19.914062 " fill-opacity="1" fill-rule="nonzero"/></g><path fill="#5271ff" d="M 17.558594 25.472656 L 17.28125 25.28125 C 16.878906 25 16.398438 24.910156 15.953125 24.988281 C 16.140625 24.636719 16.203125 24.234375 16.132812 23.832031 C 16.046875 23.363281 15.785156 22.953125 15.394531 22.679688 L 15.117188 22.488281 C 14.671875 22.179688 14.136719 22.097656 13.652344 22.222656 C 13.71875 21.972656 13.734375 21.707031 13.6875 21.445312 C 13.601562 20.972656 13.339844 20.566406 12.945312 20.292969 L 12.667969 20.097656 C 12.277344 19.824219 11.800781 19.722656 11.332031 19.804688 C 10.921875 19.878906 10.5625 20.085938 10.296875 20.394531 C 10.210938 19.949219 9.960938 19.53125 9.558594 19.253906 L 9.28125 19.058594 C 8.472656 18.496094 7.355469 18.695312 6.792969 19.507812 L 6.078125 20.53125 L 5.847656 19.777344 C 5.644531 19.121094 5.253906 18.550781 4.710938 18.132812 L 4.203125 17.738281 L 8.914062 9.523438 L 9.757812 9.980469 C 10.246094 10.25 10.792969 10.382812 11.339844 10.382812 C 11.820312 10.382812 12.304688 10.277344 12.753906 10.066406 L 15.066406 8.96875 C 15.324219 8.847656 15.605469 8.800781 15.886719 8.828125 C 16.035156 8.84375 16.167969 8.734375 16.183594 8.585938 C 16.199219 8.433594 16.089844 8.300781 15.941406 8.285156 C 15.5625 8.25 15.179688 8.3125 14.835938 8.476562 L 12.519531 9.574219 C 11.726562 9.949219 10.789062 9.925781 10.019531 9.503906 L 9.1875 9.050781 L 9.949219 7.71875 C 10.023438 7.589844 9.980469 7.421875 9.847656 7.347656 C 9.71875 7.273438 9.550781 7.320312 9.476562 7.449219 L 9.242188 7.859375 L 5.410156 5.664062 C 5.152344 5.515625 4.824219 5.625 4.707031 5.898438 L 0.101562 16.664062 C 0.00390625 16.898438 0.09375 17.164062 0.3125 17.289062 L 2.960938 18.808594 L 2.726562 19.222656 C 2.648438 19.351562 2.695312 19.519531 2.824219 19.59375 C 2.867188 19.617188 2.914062 19.628906 2.960938 19.628906 C 3.054688 19.628906 3.148438 19.582031 3.199219 19.492188 L 3.929688 18.21875 L 4.375 18.5625 C 4.828125 18.914062 5.15625 19.386719 5.324219 19.9375 L 5.683594 21.097656 L 5.058594 22 C 4.492188 22.808594 4.695312 23.925781 5.503906 24.488281 L 5.78125 24.683594 C 6.09375 24.898438 6.449219 25.003906 6.800781 25.003906 C 6.976562 25.003906 7.15625 24.976562 7.324219 24.925781 C 7.285156 25.132812 7.285156 25.347656 7.324219 25.5625 C 7.40625 26.035156 7.667969 26.445312 8.0625 26.71875 L 8.339844 26.910156 C 8.652344 27.128906 9.007812 27.230469 9.359375 27.230469 C 9.652344 27.230469 9.941406 27.160156 10.203125 27.019531 C 10.21875 27.570312 10.484375 28.105469 10.96875 28.445312 L 11.246094 28.636719 C 11.558594 28.855469 11.914062 28.957031 12.265625 28.957031 C 12.558594 28.957031 12.84375 28.886719 13.105469 28.75 C 13.117188 29.300781 13.386719 29.839844 13.871094 30.179688 L 14.148438 30.371094 C 14.460938 30.589844 14.816406 30.691406 15.167969 30.691406 C 15.734375 30.691406 16.292969 30.421875 16.640625 29.925781 L 18.003906 27.964844 C 18.570312 27.15625 18.367188 26.035156 17.558594 25.472656 Z M 6.09375 24.234375 L 5.816406 24.042969 C 5.25 23.648438 5.113281 22.871094 5.503906 22.308594 L 7.238281 19.816406 C 7.429688 19.546875 7.710938 19.363281 8.039062 19.304688 C 8.113281 19.289062 8.1875 19.285156 8.261719 19.285156 C 8.511719 19.285156 8.757812 19.359375 8.96875 19.507812 L 9.246094 19.703125 C 9.8125 20.09375 9.949219 20.871094 9.558594 21.433594 L 8.753906 22.589844 L 7.824219 23.925781 C 7.433594 24.488281 6.65625 24.628906 6.09375 24.234375 Z M 10.523438 25.953125 C 10.523438 25.953125 10.523438 25.953125 10.519531 25.953125 L 10.382812 26.152344 C 9.992188 26.714844 9.214844 26.855469 8.652344 26.460938 L 8.375 26.269531 C 8.101562 26.078125 7.917969 25.792969 7.859375 25.464844 C 7.800781 25.140625 7.871094 24.808594 8.0625 24.535156 L 8.273438 24.238281 C 8.273438 24.238281 8.273438 24.238281 8.273438 24.234375 L 9.199219 22.902344 L 10.625 20.855469 C 10.8125 20.582031 11.097656 20.402344 11.425781 20.34375 C 11.5 20.328125 11.574219 20.324219 11.648438 20.324219 C 11.898438 20.324219 12.144531 20.398438 12.355469 20.546875 L 12.632812 20.738281 C 12.90625 20.929688 13.089844 21.214844 13.148438 21.542969 C 13.207031 21.867188 13.132812 22.199219 12.945312 22.472656 L 12.621094 22.933594 Z M 13.425781 27.6875 L 13.292969 27.878906 C 12.898438 28.441406 12.121094 28.582031 11.558594 28.191406 L 11.28125 27.996094 C 10.71875 27.605469 10.578125 26.828125 10.972656 26.265625 L 13.074219 23.246094 C 13.3125 22.898438 13.703125 22.710938 14.09375 22.710938 C 14.339844 22.710938 14.589844 22.785156 14.804688 22.933594 L 15.082031 23.128906 C 15.355469 23.316406 15.539062 23.601562 15.597656 23.929688 C 15.65625 24.257812 15.582031 24.585938 15.394531 24.859375 L 14.328125 26.390625 Z M 17.558594 27.652344 L 16.195312 29.613281 C 15.800781 30.175781 15.027344 30.316406 14.460938 29.921875 L 14.183594 29.730469 C 13.621094 29.335938 13.480469 28.5625 13.875 27.996094 L 14.773438 26.703125 L 15.238281 26.039062 C 15.476562 25.691406 15.867188 25.503906 16.261719 25.503906 C 16.503906 25.503906 16.753906 25.578125 16.96875 25.726562 L 17.246094 25.921875 C 17.808594 26.3125 17.949219 27.089844 17.558594 27.652344 Z M 17.558594 27.652344 " fill-opacity="1" fill-rule="nonzero"/><g clip-path="url(#d4e63317e7)"><path fill="#5271ff" d="M 15.308594 34.070312 C 15.179688 33.996094 15.011719 34.035156 14.933594 34.164062 L 13.890625 35.90625 C 13.8125 36.035156 13.851562 36.203125 13.984375 36.277344 C 14.027344 36.304688 14.074219 36.316406 14.121094 36.316406 C 14.214844 36.316406 14.304688 36.269531 14.355469 36.183594 L 15.402344 34.445312 C 15.480469 34.316406 15.4375 34.148438 15.308594 34.070312 Z M 15.308594 34.070312 " fill-opacity="1" fill-rule="nonzero"/></g><g clip-path="url(#c800ee4f08)"><path fill="#5271ff" d="M 17.042969 4.679688 C 17.089844 4.78125 17.191406 4.839844 17.292969 4.839844 C 17.332031 4.839844 17.367188 4.832031 17.40625 4.816406 C 17.542969 4.753906 17.605469 4.59375 17.542969 4.453125 L 16.707031 2.605469 C 16.648438 2.46875 16.484375 2.40625 16.347656 2.46875 C 16.210938 2.53125 16.148438 2.691406 16.210938 2.828125 Z M 17.042969 4.679688 " fill-opacity="1" fill-rule="nonzero"/></g><g clip-path="url(#6d28f04779)"><path fill="#5271ff" d="M 23.335938 5.144531 C 23.375 5.167969 23.417969 5.175781 23.464844 5.175781 C 23.5625 5.175781 23.65625 5.125 23.703125 5.035156 L 24.664062 3.246094 C 24.734375 3.113281 24.683594 2.945312 24.550781 2.875 C 24.417969 2.804688 24.253906 2.855469 24.183594 2.988281 L 23.222656 4.773438 C 23.152344 4.910156 23.203125 5.074219 23.335938 5.144531 Z M 23.335938 5.144531 " fill-opacity="1" fill-rule="nonzero"/></g></svg>