<svg xmlns="http://www.w3.org/2000/svg" xmlns:xlink="http://www.w3.org/1999/xlink" width="51" zoomAndPan="magnify" viewBox="0 0 38.25 39.749999" height="53" preserveAspectRatio="xMidYMid meet" version="1.0"><defs><clipPath id="510312eda8"><path d="M 21 34 L 23 34 L 23 36.972656 L 21 36.972656 Z M 21 34 " clip-rule="nonzero"/></clipPath><clipPath id="80d636e7f4"><path d="M 9 8 L 37.515625 8 L 37.515625 32 L 9 32 Z M 9 8 " clip-rule="nonzero"/></clipPath><clipPath id="2da8144e66"><path d="M 13 33 L 16 33 L 16 36.972656 L 13 36.972656 Z M 13 33 " clip-rule="nonzero"/></clipPath><clipPath id="ce2cc6b063"><path d="M 16 2.402344 L 18 2.402344 L 18 5 L 16 5 Z M 16 2.402344 " clip-rule="nonzero"/></clipPath><clipPath id="b9ab2c7243"><path d="M 23 2.402344 L 25 2.402344 L 25 6 L 23 6 Z M 23 2.402344 " clip-rule="nonzero"/></clipPath></defs><g clip-path="url(#510312eda8)"><path fill="#000000" d="M 22.054688 36.980469 C 21.945312 36.980469 21.84375 36.914062 21.800781 36.804688 L 21.058594 34.925781 C 21.003906 34.785156 21.074219 34.628906 21.214844 34.570312 C 21.355469 34.515625 21.511719 34.585938 21.566406 34.726562 L 22.308594 36.609375 C 22.367188 36.746094 22.296875 36.90625 22.15625 36.960938 C 22.125 36.972656 22.089844 36.980469 22.054688 36.980469 Z M 22.054688 36.980469 " fill-opacity="1" fill-rule="nonzero"/></g><g clip-path="url(#80d636e7f4)"><path fill="#000000" d="M 37.460938 19.847656 L 34.734375 8.503906 C 34.664062 8.214844 34.359375 8.054688 34.078125 8.15625 L 29.933594 9.671875 L 29.769531 9.230469 C 29.714844 9.089844 29.558594 9.015625 29.417969 9.066406 C 29.277344 9.121094 29.203125 9.273438 29.257812 9.414062 L 29.777344 10.832031 L 28.78125 11.175781 C 27.949219 11.460938 27.023438 11.335938 26.300781 10.832031 L 24.175781 9.359375 C 23.882812 9.15625 23.535156 9.027344 23.179688 8.996094 L 18.667969 8.570312 C 18.328125 8.539062 17.988281 8.628906 17.710938 8.820312 L 10.425781 13.914062 C 9.941406 14.253906 9.714844 14.867188 9.863281 15.441406 C 10.019531 16.03125 10.539062 16.457031 11.152344 16.5 L 13.234375 16.636719 C 13.539062 16.65625 13.832031 16.582031 14.089844 16.417969 L 17.132812 14.507812 C 17.433594 14.316406 17.816406 14.328125 18.105469 14.53125 L 24.714844 19.109375 C 24.75 19.136719 28.320312 21.609375 30.394531 22.996094 C 30.71875 23.214844 30.941406 23.546875 31.011719 23.933594 C 31.085938 24.320312 31 24.710938 30.773438 25.035156 L 30.746094 25.074219 C 30.523438 25.394531 30.1875 25.605469 29.804688 25.667969 C 29.421875 25.734375 29.035156 25.644531 28.71875 25.414062 L 25.4375 23.042969 C 25.316406 22.957031 25.148438 22.984375 25.058594 23.105469 C 24.96875 23.226562 24.996094 23.394531 25.117188 23.484375 L 27.261719 25.035156 C 27.667969 25.519531 27.695312 26.214844 27.332031 26.734375 C 26.886719 27.375 26.003906 27.53125 25.367188 27.085938 C 25.367188 27.085938 23.84375 26.03125 23.84375 26.03125 C 23.84375 26.03125 22.625 25.1875 22.625 25.1875 C 22.5 25.101562 22.332031 25.132812 22.246094 25.253906 C 22.160156 25.378906 22.191406 25.546875 22.3125 25.632812 L 23.53125 26.476562 C 23.84375 26.691406 24.050781 27.015625 24.117188 27.386719 C 24.183594 27.757812 24.101562 28.128906 23.886719 28.4375 C 23.441406 29.078125 22.558594 29.234375 21.917969 28.789062 L 19.601562 27.183594 C 19.476562 27.097656 19.308594 27.128906 19.222656 27.253906 C 19.136719 27.375 19.167969 27.546875 19.289062 27.628906 L 20.097656 28.191406 C 20.410156 28.40625 20.617188 28.730469 20.683594 29.101562 C 20.75 29.46875 20.667969 29.84375 20.453125 30.152344 C 20.003906 30.792969 19.117188 30.957031 18.46875 30.519531 L 17.789062 30.058594 C 17.664062 29.976562 17.496094 30.007812 17.410156 30.132812 C 17.328125 30.257812 17.359375 30.425781 17.484375 30.511719 L 18.164062 30.96875 C 18.5 31.199219 18.886719 31.308594 19.269531 31.308594 C 19.898438 31.308594 20.515625 31.011719 20.898438 30.460938 C 21.199219 30.035156 21.3125 29.515625 21.21875 29.003906 C 21.21875 28.988281 21.214844 28.976562 21.210938 28.960938 L 21.605469 29.234375 C 21.945312 29.472656 22.335938 29.585938 22.71875 29.585938 C 23.339844 29.585938 23.949219 29.292969 24.332031 28.75 C 24.648438 28.292969 24.746094 27.75 24.640625 27.246094 L 25.054688 27.53125 C 25.394531 27.769531 25.785156 27.882812 26.167969 27.882812 C 26.789062 27.882812 27.398438 27.589844 27.78125 27.046875 C 28.074219 26.628906 28.179688 26.125 28.109375 25.648438 L 28.398438 25.855469 C 28.738281 26.101562 29.144531 26.234375 29.558594 26.234375 C 29.667969 26.234375 29.78125 26.222656 29.894531 26.203125 C 30.425781 26.117188 30.886719 25.824219 31.191406 25.382812 L 31.21875 25.347656 C 31.53125 24.898438 31.648438 24.363281 31.546875 23.832031 C 31.449219 23.300781 31.144531 22.847656 30.699219 22.546875 C 28.625 21.160156 25.0625 18.6875 25.027344 18.664062 L 18.417969 14.082031 C 17.945312 13.753906 17.328125 13.742188 16.839844 14.046875 L 13.796875 15.957031 C 13.640625 16.058594 13.457031 16.105469 13.269531 16.09375 L 11.1875 15.957031 C 10.808594 15.929688 10.488281 15.667969 10.390625 15.300781 C 10.296875 14.945312 10.4375 14.566406 10.738281 14.359375 L 18.023438 9.265625 C 18.195312 9.144531 18.402344 9.089844 18.613281 9.109375 L 23.125 9.535156 C 23.390625 9.5625 23.644531 9.652344 23.863281 9.804688 L 25.988281 11.28125 C 26.851562 11.878906 27.960938 12.03125 28.957031 11.6875 L 29.964844 11.339844 L 33.226562 20.183594 L 32.59375 20.523438 C 32.101562 20.789062 31.679688 21.175781 31.378906 21.644531 C 31.296875 21.769531 31.332031 21.9375 31.460938 22.019531 C 31.503906 22.046875 31.554688 22.0625 31.605469 22.0625 C 31.695312 22.0625 31.785156 22.019531 31.835938 21.9375 C 32.089844 21.546875 32.441406 21.222656 32.851562 21.003906 L 33.417969 20.699219 L 33.933594 22.105469 C 33.976562 22.214844 34.078125 22.285156 34.191406 22.285156 C 34.222656 22.285156 34.253906 22.277344 34.285156 22.265625 C 34.425781 22.214844 34.5 22.058594 34.449219 21.917969 L 34.285156 21.472656 L 37.148438 20.425781 C 37.386719 20.339844 37.519531 20.09375 37.460938 19.847656 Z M 37.460938 19.847656 " fill-opacity="1" fill-rule="nonzero"/></g><path fill="#000000" d="M 17.558594 25.390625 L 17.28125 25.195312 C 16.878906 24.917969 16.398438 24.828125 15.953125 24.90625 C 16.140625 24.554688 16.203125 24.152344 16.132812 23.753906 C 16.046875 23.285156 15.785156 22.878906 15.394531 22.605469 L 15.117188 22.414062 C 14.671875 22.105469 14.136719 22.027344 13.652344 22.152344 C 13.71875 21.902344 13.734375 21.636719 13.6875 21.375 C 13.601562 20.90625 13.339844 20.5 12.945312 20.226562 L 12.667969 20.035156 C 12.277344 19.761719 11.800781 19.65625 11.332031 19.742188 C 10.921875 19.816406 10.5625 20.019531 10.296875 20.328125 C 10.210938 19.882812 9.960938 19.46875 9.558594 19.191406 L 9.28125 19 C 8.472656 18.4375 7.355469 18.636719 6.792969 19.445312 L 6.078125 20.464844 L 5.847656 19.710938 C 5.644531 19.058594 5.253906 18.492188 4.710938 18.074219 L 4.203125 17.683594 L 8.914062 9.5 L 9.757812 9.953125 C 10.246094 10.21875 10.792969 10.355469 11.339844 10.355469 C 11.820312 10.355469 12.304688 10.25 12.753906 10.039062 L 15.066406 8.945312 C 15.324219 8.824219 15.605469 8.777344 15.886719 8.804688 C 16.035156 8.820312 16.167969 8.710938 16.183594 8.5625 C 16.199219 8.414062 16.089844 8.28125 15.941406 8.265625 C 15.5625 8.226562 15.179688 8.292969 14.835938 8.457031 L 12.519531 9.546875 C 11.726562 9.921875 10.789062 9.898438 10.019531 9.476562 L 9.1875 9.027344 L 9.949219 7.703125 C 10.023438 7.570312 9.980469 7.40625 9.847656 7.328125 C 9.71875 7.253906 9.550781 7.300781 9.476562 7.429688 L 9.242188 7.839844 L 5.410156 5.652344 C 5.152344 5.503906 4.824219 5.613281 4.707031 5.886719 L 0.101562 16.613281 C 0.00390625 16.84375 0.09375 17.113281 0.3125 17.238281 L 2.960938 18.75 L 2.726562 19.160156 C 2.648438 19.289062 2.695312 19.457031 2.824219 19.53125 C 2.867188 19.554688 2.914062 19.566406 2.960938 19.566406 C 3.054688 19.566406 3.148438 19.519531 3.199219 19.429688 L 3.929688 18.160156 L 4.375 18.503906 C 4.828125 18.851562 5.15625 19.324219 5.324219 19.871094 L 5.683594 21.03125 L 5.058594 21.925781 C 4.492188 22.734375 4.695312 23.847656 5.503906 24.410156 L 5.78125 24.601562 C 6.09375 24.816406 6.449219 24.921875 6.800781 24.921875 C 6.976562 24.921875 7.15625 24.894531 7.324219 24.84375 C 7.285156 25.050781 7.285156 25.265625 7.324219 25.480469 C 7.40625 25.949219 7.667969 26.355469 8.0625 26.628906 L 8.339844 26.820312 C 8.652344 27.039062 9.007812 27.140625 9.359375 27.140625 C 9.652344 27.140625 9.941406 27.070312 10.203125 26.929688 C 10.21875 27.480469 10.484375 28.011719 10.96875 28.351562 L 11.246094 28.542969 C 11.558594 28.757812 11.914062 28.863281 12.265625 28.863281 C 12.558594 28.863281 12.84375 28.789062 13.105469 28.652344 C 13.117188 29.203125 13.386719 29.738281 13.871094 30.078125 L 14.148438 30.269531 C 14.460938 30.484375 14.816406 30.589844 15.167969 30.589844 C 15.734375 30.589844 16.292969 30.320312 16.640625 29.824219 L 18.003906 27.871094 C 18.570312 27.066406 18.367188 25.949219 17.558594 25.390625 Z M 6.09375 24.15625 L 5.816406 23.964844 C 5.25 23.574219 5.113281 22.796875 5.503906 22.238281 L 7.238281 19.753906 C 7.429688 19.484375 7.710938 19.300781 8.039062 19.242188 C 8.113281 19.230469 8.1875 19.222656 8.261719 19.222656 C 8.511719 19.222656 8.757812 19.300781 8.96875 19.445312 L 9.246094 19.636719 C 9.8125 20.027344 9.949219 20.804688 9.558594 21.363281 L 8.753906 22.515625 L 7.824219 23.847656 C 7.433594 24.40625 6.65625 24.546875 6.09375 24.15625 Z M 10.523438 25.867188 C 10.523438 25.867188 10.523438 25.867188 10.519531 25.867188 L 10.382812 26.0625 C 9.992188 26.625 9.214844 26.765625 8.652344 26.375 L 8.375 26.179688 C 8.101562 25.992188 7.917969 25.707031 7.859375 25.382812 C 7.800781 25.054688 7.871094 24.726562 8.0625 24.457031 L 8.273438 24.15625 L 9.199219 22.828125 L 10.625 20.789062 C 10.8125 20.515625 11.097656 20.335938 11.425781 20.277344 C 11.5 20.261719 11.574219 20.257812 11.648438 20.257812 C 11.898438 20.257812 12.144531 20.332031 12.355469 20.480469 L 12.632812 20.671875 C 12.90625 20.863281 13.089844 21.144531 13.148438 21.472656 C 13.207031 21.796875 13.132812 22.128906 12.945312 22.398438 L 12.621094 22.859375 Z M 13.425781 27.59375 L 13.292969 27.785156 C 12.898438 28.347656 12.121094 28.484375 11.558594 28.097656 L 11.28125 27.902344 C 10.71875 27.511719 10.578125 26.738281 10.972656 26.175781 L 13.074219 23.167969 C 13.3125 22.824219 13.703125 22.636719 14.09375 22.636719 C 14.339844 22.636719 14.589844 22.710938 14.804688 22.859375 L 15.082031 23.050781 C 15.355469 23.242188 15.539062 23.523438 15.597656 23.851562 C 15.65625 24.175781 15.582031 24.507812 15.394531 24.777344 L 14.328125 26.304688 Z M 17.558594 27.5625 L 16.195312 29.511719 C 15.800781 30.074219 15.027344 30.214844 14.460938 29.824219 L 14.183594 29.628906 C 13.621094 29.238281 13.480469 28.464844 13.875 27.90625 L 14.773438 26.613281 L 15.238281 25.953125 C 15.476562 25.605469 15.867188 25.421875 16.261719 25.421875 C 16.503906 25.421875 16.753906 25.492188 16.96875 25.644531 L 17.246094 25.835938 C 17.808594 26.226562 17.949219 27 17.558594 27.5625 Z M 17.558594 27.5625 " fill-opacity="1" fill-rule="nonzero"/><g clip-path="url(#2da8144e66)"><path fill="#000000" d="M 15.308594 33.957031 C 15.179688 33.878906 15.011719 33.921875 14.933594 34.050781 L 13.890625 35.78125 C 13.8125 35.910156 13.851562 36.078125 13.984375 36.15625 C 14.027344 36.183594 14.074219 36.195312 14.121094 36.195312 C 14.214844 36.195312 14.304688 36.148438 14.355469 36.0625 L 15.402344 34.328125 C 15.480469 34.199219 15.4375 34.035156 15.308594 33.957031 Z M 15.308594 33.957031 " fill-opacity="1" fill-rule="nonzero"/></g><g clip-path="url(#ce2cc6b063)"><path fill="#000000" d="M 17.042969 4.671875 C 17.089844 4.769531 17.191406 4.832031 17.292969 4.832031 C 17.332031 4.832031 17.367188 4.824219 17.40625 4.808594 C 17.542969 4.746094 17.605469 4.585938 17.542969 4.449219 L 16.707031 2.605469 C 16.648438 2.46875 16.484375 2.40625 16.347656 2.46875 C 16.210938 2.53125 16.148438 2.691406 16.210938 2.828125 Z M 17.042969 4.671875 " fill-opacity="1" fill-rule="nonzero"/></g><g clip-path="url(#b9ab2c7243)"><path fill="#000000" d="M 23.335938 5.132812 C 23.375 5.15625 23.417969 5.167969 23.464844 5.167969 C 23.5625 5.167969 23.65625 5.117188 23.703125 5.023438 L 24.664062 3.242188 C 24.734375 3.109375 24.683594 2.945312 24.550781 2.875 C 24.417969 2.800781 24.253906 2.851562 24.183594 2.984375 L 23.222656 4.765625 C 23.152344 4.898438 23.203125 5.0625 23.335938 5.132812 Z M 23.335938 5.132812 " fill-opacity="1" fill-rule="nonzero"/></g></svg>